<svg version="1.1" xmlns="http://www.w3.org/2000/svg" xmlns:xlink="http://www.w3.org/1999/xlink" width="639" height="463"><defs/><g><text fill="#eeeeee" stroke="none" font-family="Arial" font-size="24px" font-style="normal" font-weight="normal" text-decoration="none" x="0" y="0"></text><text fill="#eeeeee" stroke="none" font-family="Arial" font-size="24px" font-style="normal" font-weight="normal" text-decoration="none" x="0" y="30"></text><text fill="#eeeeee" stroke="none" font-family="Arial" font-size="24px" font-style="normal" font-weight="normal" text-decoration="none" x="0" y="60"></text><text fill="#eeeeee" stroke="none" font-family="Arial" font-size="24px" font-style="normal" font-weight="normal" text-decoration="none" x="0" y="90"></text><text fill="#eeeeee" stroke="none" font-family="Arial" font-size="24px" font-style="normal" font-weight="normal" text-decoration="none" x="0" y="120"></text><text fill="#eeeeee" stroke="none" font-family="Arial" font-size="24px" font-style="normal" font-weight="normal" text-decoration="none" x="0" y="150"></text><text fill="#eeeeee" stroke="none" font-family="Arial" font-size="24px" font-style="normal" font-weight="normal" text-decoration="none" x="0" y="180"></text><text fill="#eeeeee" stroke="none" font-family="Arial" font-size="24px" font-style="normal" font-weight="normal" text-decoration="none" x="0" y="210"></text><text fill="#eeeeee" stroke="none" font-family="Arial" font-size="24px" font-style="normal" font-weight="normal" text-decoration="none" x="0" y="240"></text><text fill="#eeeeee" stroke="none" font-family="Arial" font-size="24px" font-style="normal" font-weight="normal" text-decoration="none" x="0" y="270"></text><text fill="#eeeeee" stroke="none" font-family="Arial" font-size="24px" font-style="normal" font-weight="normal" text-decoration="none" x="0" y="300"></text><text fill="#eeeeee" stroke="none" font-family="Arial" font-size="24px" font-style="normal" font-weight="normal" text-decoration="none" x="0" y="330"></text><text fill="#eeeeee" stroke="none" font-family="Arial" font-size="24px" font-style="normal" font-weight="normal" text-decoration="none" x="0" y="360"></text><text fill="#eeeeee" stroke="none" font-family="Arial" font-size="24px" font-style="normal" font-weight="normal" text-decoration="none" x="0" y="390"></text><text fill="#eeeeee" stroke="none" font-family="Arial" font-size="24px" font-style="normal" font-weight="normal" text-decoration="none" x="0" y="420"></text><text fill="#eeeeee" stroke="none" font-family="Arial" font-size="24px" font-style="normal" font-weight="normal" text-decoration="none" x="0" y="450"></text><text fill="#eeeeee" stroke="none" font-family="Arial" font-size="24px" font-style="normal" font-weight="normal" text-decoration="none" x="200" y="0"></text><text fill="#eeeeee" stroke="none" font-family="Arial" font-size="24px" font-style="normal" font-weight="normal" text-decoration="none" x="200" y="30"></text><text fill="#eeeeee" stroke="none" font-family="Arial" font-size="24px" font-style="normal" font-weight="normal" text-decoration="none" x="200" y="60"></text><text fill="#eeeeee" stroke="none" font-family="Arial" font-size="24px" font-style="normal" font-weight="normal" text-decoration="none" x="200" y="90"></text><text fill="#eeeeee" stroke="none" font-family="Arial" font-size="24px" font-style="normal" font-weight="normal" text-decoration="none" x="200" y="120"></text><text fill="#eeeeee" stroke="none" font-family="Arial" font-size="24px" font-style="normal" font-weight="normal" text-decoration="none" x="200" y="150"></text><text fill="#eeeeee" stroke="none" font-family="Arial" font-size="24px" font-style="normal" font-weight="normal" text-decoration="none" x="200" y="180"></text><text fill="#eeeeee" stroke="none" font-family="Arial" font-size="24px" font-style="normal" font-weight="normal" text-decoration="none" x="200" y="210"></text><text fill="#eeeeee" stroke="none" font-family="Arial" font-size="24px" font-style="normal" font-weight="normal" text-decoration="none" x="200" y="240"></text><text fill="#eeeeee" stroke="none" font-family="Arial" font-size="24px" font-style="normal" font-weight="normal" text-decoration="none" x="200" y="270"></text><text fill="#eeeeee" stroke="none" font-family="Arial" font-size="24px" font-style="normal" font-weight="normal" text-decoration="none" x="200" y="300"></text><text fill="#eeeeee" stroke="none" font-family="Arial" font-size="24px" font-style="normal" font-weight="normal" text-decoration="none" x="200" y="330"></text><text fill="#eeeeee" stroke="none" font-family="Arial" font-size="24px" font-style="normal" font-weight="normal" text-decoration="none" x="200" y="360"></text><text fill="#eeeeee" stroke="none" font-family="Arial" font-size="24px" font-style="normal" font-weight="normal" text-decoration="none" x="200" y="390"></text><text fill="#eeeeee" stroke="none" font-family="Arial" font-size="24px" font-style="normal" font-weight="normal" text-decoration="none" x="200" y="420"></text><text fill="#eeeeee" stroke="none" font-family="Arial" font-size="24px" font-style="normal" font-weight="normal" text-decoration="none" x="200" y="450"></text><text fill="#eeeeee" stroke="none" font-family="Arial" font-size="24px" font-style="normal" font-weight="normal" text-decoration="none" x="400" y="0"></text><text fill="#eeeeee" stroke="none" font-family="Arial" font-size="24px" font-style="normal" font-weight="normal" text-decoration="none" x="400" y="30"></text><text fill="#eeeeee" stroke="none" font-family="Arial" font-size="24px" font-style="normal" font-weight="normal" text-decoration="none" x="400" y="60"></text><text fill="#eeeeee" stroke="none" font-family="Arial" font-size="24px" font-style="normal" font-weight="normal" text-decoration="none" x="400" y="90"></text><text fill="#eeeeee" stroke="none" font-family="Arial" font-size="24px" font-style="normal" font-weight="normal" text-decoration="none" x="400" y="120"></text><text fill="#eeeeee" stroke="none" font-family="Arial" font-size="24px" font-style="normal" font-weight="normal" text-decoration="none" x="400" y="150"></text><text fill="#eeeeee" stroke="none" font-family="Arial" font-size="24px" font-style="normal" font-weight="normal" text-decoration="none" x="400" y="180"></text><text fill="#eeeeee" stroke="none" font-family="Arial" font-size="24px" font-style="normal" font-weight="normal" text-decoration="none" x="400" y="210"></text><text fill="#eeeeee" stroke="none" font-family="Arial" font-size="24px" font-style="normal" font-weight="normal" text-decoration="none" x="400" y="240"></text><text fill="#eeeeee" stroke="none" font-family="Arial" font-size="24px" font-style="normal" font-weight="normal" text-decoration="none" x="400" y="270"></text><text fill="#eeeeee" stroke="none" font-family="Arial" font-size="24px" font-style="normal" font-weight="normal" text-decoration="none" x="400" y="300"></text><text fill="#eeeeee" stroke="none" font-family="Arial" font-size="24px" font-style="normal" font-weight="normal" text-decoration="none" x="400" y="330"></text><text fill="#eeeeee" stroke="none" font-family="Arial" font-size="24px" font-style="normal" font-weight="normal" text-decoration="none" x="400" y="360"></text><text fill="#eeeeee" stroke="none" font-family="Arial" font-size="24px" font-style="normal" font-weight="normal" text-decoration="none" x="400" y="390"></text><text fill="#eeeeee" stroke="none" font-family="Arial" font-size="24px" font-style="normal" font-weight="normal" text-decoration="none" x="400" y="420"></text><text fill="#eeeeee" stroke="none" font-family="Arial" font-size="24px" font-style="normal" font-weight="normal" text-decoration="none" x="400" y="450"></text><text fill="#eeeeee" stroke="none" font-family="Arial" font-size="24px" font-style="normal" font-weight="normal" text-decoration="none" x="600" y="0"></text><text fill="#eeeeee" stroke="none" font-family="Arial" font-size="24px" font-style="normal" font-weight="normal" text-decoration="none" x="600" y="30"></text><text fill="#eeeeee" stroke="none" font-family="Arial" font-size="24px" font-style="normal" font-weight="normal" text-decoration="none" x="600" y="60"></text><text fill="#eeeeee" stroke="none" font-family="Arial" font-size="24px" font-style="normal" font-weight="normal" text-decoration="none" x="600" y="90"></text><text fill="#eeeeee" stroke="none" font-family="Arial" font-size="24px" font-style="normal" font-weight="normal" text-decoration="none" x="600" y="120"></text><text fill="#eeeeee" stroke="none" font-family="Arial" font-size="24px" font-style="normal" font-weight="normal" text-decoration="none" x="600" y="150"></text><text fill="#eeeeee" stroke="none" font-family="Arial" font-size="24px" font-style="normal" font-weight="normal" text-decoration="none" x="600" y="180"></text><text fill="#eeeeee" stroke="none" font-family="Arial" font-size="24px" font-style="normal" font-weight="normal" text-decoration="none" x="600" y="210"></text><text fill="#eeeeee" stroke="none" font-family="Arial" font-size="24px" font-style="normal" font-weight="normal" text-decoration="none" x="600" y="240"></text><text fill="#eeeeee" stroke="none" font-family="Arial" font-size="24px" font-style="normal" font-weight="normal" text-decoration="none" x="600" y="270"></text><text fill="#eeeeee" stroke="none" font-family="Arial" font-size="24px" font-style="normal" font-weight="normal" text-decoration="none" x="600" y="300"></text><text fill="#eeeeee" stroke="none" font-family="Arial" font-size="24px" font-style="normal" font-weight="normal" text-decoration="none" x="600" y="330"></text><text fill="#eeeeee" stroke="none" font-family="Arial" font-size="24px" font-style="normal" font-weight="normal" text-decoration="none" x="600" y="360"></text><text fill="#eeeeee" stroke="none" font-family="Arial" font-size="24px" font-style="normal" font-weight="normal" text-decoration="none" x="600" y="390"></text><text fill="#eeeeee" stroke="none" font-family="Arial" font-size="24px" font-style="normal" font-weight="normal" text-decoration="none" x="600" y="420"></text><text fill="#eeeeee" stroke="none" font-family="Arial" font-size="24px" font-style="normal" font-weight="normal" text-decoration="none" x="600" y="450"></text><g transform="translate(-134,-86) scale(1,1)"><rect fill="#ffffff" stroke="none" x="224" y="96" width="280" height="127"/></g><g transform="translate(-134,-86) scale(1,1)"><path fill="none" stroke="#000000" d="M 224 96 L 504 96 L 504 223 L 224 223 L 224 96 Z Z" stroke-miterlimit="10"/></g><g transform="translate(-134,-86) scale(1,1)"><rect fill="#C0C0C0" stroke="none" x="319" y="311" width="99.79541015625" height="45" opacity="0.2"/></g><g transform="translate(-134,-86) scale(1,1)"><rect fill="#ffffff" stroke="none" x="312" y="304" width="99.79541015625" height="45"/></g><g transform="translate(-134,-86) scale(1,1)"><path fill="none" stroke="#000000" d="M 312 304 L 411.79541015625 304 L 411.79541015625 349 L 312 349 L 312 304 Z Z" stroke-miterlimit="10"/></g><g transform="translate(-134,-86) scale(1,1)"><path fill="none" stroke="#000000" d="M 312 327 L 411.79541015625 327" stroke-miterlimit="10"/></g><g transform="translate(-134,-86) scale(1,1)"><path fill="none" stroke="#000000" d="M 322 327 L 322 349" stroke-miterlimit="10"/></g><g transform="translate(-134,-86) scale(1,1)"><path fill="none" stroke="#000000" d="M 365.24267578125 327 L 365.24267578125 349" stroke-miterlimit="10"/></g><g transform="translate(-134,-86) scale(1,1)"><g><path fill="none" stroke="none"/><text fill="#000000" stroke="none" font-family="Arial" font-size="13px" font-style="normal" font-weight="bold" text-decoration="none" x="347.444091796875" y="320">User</text></g></g><g transform="translate(-134,-86) scale(1,1)"><g><path fill="none" stroke="none"/><text fill="#000000" stroke="none" font-family="Arial" font-size="13px" font-style="normal" font-weight="normal" text-decoration="none" x="317" y="332"></text></g></g><g transform="translate(-134,-86) scale(1,1)"><g><path fill="none" stroke="none"/><text fill="#000000" stroke="none" font-family="Arial" font-size="13px" font-style="normal" font-weight="normal" text-decoration="none" x="327" y="342">email</text></g></g><g transform="translate(-134,-86) scale(1,1)"><g><path fill="none" stroke="none"/><text fill="#000000" stroke="none" font-family="Arial" font-size="13px" font-style="normal" font-weight="normal" text-decoration="none" x="370.24267578125" y="342">String</text></g></g><g transform="translate(-134,-86) scale(1,1)"><g><path fill="none" stroke="none"/><text fill="#000000" stroke="none" font-family="Arial" font-size="13px" font-style="normal" font-weight="normal" text-decoration="none" x="317" y="338"></text></g></g><g transform="translate(-134,-86) scale(1,1)"><rect fill="#C0C0C0" stroke="none" x="535" y="479" width="120.7236328125" height="60" opacity="0.2"/></g><g transform="translate(-134,-86) scale(1,1)"><rect fill="#ffffff" stroke="none" x="528" y="472" width="120.7236328125" height="60"/></g><g transform="translate(-134,-86) scale(1,1)"><path fill="none" stroke="#000000" d="M 528 472 L 648.7236328125 472 L 648.7236328125 532 L 528 532 L 528 472 Z Z" stroke-miterlimit="10"/></g><g transform="translate(-134,-86) scale(1,1)"><path fill="none" stroke="#000000" d="M 528 495 L 648.7236328125 495" stroke-miterlimit="10"/></g><g transform="translate(-134,-86) scale(1,1)"><path fill="none" stroke="#000000" d="M 538 495 L 538 532" stroke-miterlimit="10"/></g><g transform="translate(-134,-86) scale(1,1)"><path fill="none" stroke="#000000" d="M 581.9599609375 495 L 581.9599609375 532" stroke-miterlimit="10"/></g><g transform="translate(-134,-86) scale(1,1)"><g><path fill="none" stroke="none"/><text fill="#000000" stroke="none" font-family="Arial" font-size="13px" font-style="normal" font-weight="bold" text-decoration="none" x="564.1708984375" y="488">Student</text></g></g><g transform="translate(-134,-86) scale(1,1)"><g><path fill="none" stroke="none"/><text fill="#000000" stroke="none" font-family="Arial" font-size="13px" font-style="normal" font-weight="normal" text-decoration="none" x="533" y="500"></text></g></g><g transform="translate(-134,-86) scale(1,1)"><g><path fill="none" stroke="none"/><text fill="#000000" stroke="none" font-family="Arial" font-size="13px" font-style="normal" font-weight="normal" text-decoration="none" x="543" y="507">name</text></g></g><g transform="translate(-134,-86) scale(1,1)"><g><path fill="none" stroke="none"/><text fill="#000000" stroke="none" font-family="Arial" font-size="13px" font-style="normal" font-weight="normal" text-decoration="none" x="586.9599609375" y="510">string</text></g></g><g transform="translate(-134,-86) scale(1,1)"><g><path fill="none" stroke="none"/><text fill="#000000" stroke="none" font-family="Arial" font-size="13px" font-style="normal" font-weight="normal" text-decoration="none" x="533" y="506"></text></g></g><g transform="translate(-134,-86) scale(1,1)"><g><path fill="none" stroke="none"/><text fill="#000000" stroke="none" font-family="Arial" font-size="13px" font-style="normal" font-weight="normal" text-decoration="none" x="533" y="515"></text></g></g><g transform="translate(-134,-86) scale(1,1)"><g><path fill="none" stroke="none"/><text fill="#000000" stroke="none" font-family="Arial" font-size="13px" font-style="normal" font-weight="normal" text-decoration="none" x="543" y="525">cpf</text></g></g><g transform="translate(-134,-86) scale(1,1)"><g><path fill="none" stroke="none"/><text fill="#000000" stroke="none" font-family="Arial" font-size="13px" font-style="normal" font-weight="normal" text-decoration="none" x="586.9599609375" y="525">string</text></g></g><g transform="translate(-134,-86) scale(1,1)"><g><path fill="none" stroke="none"/><text fill="#000000" stroke="none" font-family="Arial" font-size="13px" font-style="normal" font-weight="normal" text-decoration="none" x="533" y="521"></text></g></g><g transform="translate(-134,-86) scale(1,1)"><rect fill="#C0C0C0" stroke="none" x="535" y="311" width="99.07177734375" height="45" opacity="0.2"/></g><g transform="translate(-134,-86) scale(1,1)"><rect fill="#ffffff" stroke="none" x="528" y="304" width="99.07177734375" height="45"/></g><g transform="translate(-134,-86) scale(1,1)"><path fill="none" stroke="#000000" d="M 528 304 L 627.07177734375 304 L 627.07177734375 349 L 528 349 L 528 304 Z Z" stroke-miterlimit="10"/></g><g transform="translate(-134,-86) scale(1,1)"><path fill="none" stroke="#000000" d="M 528 327 L 627.07177734375 327" stroke-miterlimit="10"/></g><g transform="translate(-134,-86) scale(1,1)"><path fill="none" stroke="#000000" d="M 538 327 L 538 349" stroke-miterlimit="10"/></g><g transform="translate(-134,-86) scale(1,1)"><path fill="none" stroke="#000000" d="M 581.9599609375 327 L 581.9599609375 349" stroke-miterlimit="10"/></g><g transform="translate(-134,-86) scale(1,1)"><g><path fill="none" stroke="none"/><text fill="#000000" stroke="none" font-family="Arial" font-size="13px" font-style="normal" font-weight="bold" text-decoration="none" x="555.8681640625" y="320">School</text></g></g><g transform="translate(-134,-86) scale(1,1)"><g><path fill="none" stroke="none"/><text fill="#000000" stroke="none" font-family="Arial" font-size="13px" font-style="normal" font-weight="normal" text-decoration="none" x="533" y="332"></text></g></g><g transform="translate(-134,-86) scale(1,1)"><g><path fill="none" stroke="none"/><text fill="#000000" stroke="none" font-family="Arial" font-size="13px" font-style="normal" font-weight="normal" text-decoration="none" x="543" y="339">name</text></g></g><g transform="translate(-134,-86) scale(1,1)"><g><path fill="none" stroke="none"/><text fill="#000000" stroke="none" font-family="Arial" font-size="13px" font-style="normal" font-weight="normal" text-decoration="none" x="586.9599609375" y="342">string</text></g></g><g transform="translate(-134,-86) scale(1,1)"><g><path fill="none" stroke="none"/><text fill="#000000" stroke="none" font-family="Arial" font-size="13px" font-style="normal" font-weight="normal" text-decoration="none" x="533" y="338"></text></g></g><g transform="translate(-134,-86) scale(1,1)"><rect fill="#C0C0C0" stroke="none" x="287" y="471" width="149.630859375" height="75" opacity="0.2"/></g><g transform="translate(-134,-86) scale(1,1)"><rect fill="#ffffff" stroke="none" x="280" y="464" width="149.630859375" height="75"/></g><g transform="translate(-134,-86) scale(1,1)"><path fill="none" stroke="#000000" d="M 280 464 L 429.630859375 464 L 429.630859375 539 L 280 539 L 280 464 Z Z" stroke-miterlimit="10"/></g><g transform="translate(-134,-86) scale(1,1)"><path fill="none" stroke="#000000" d="M 280 487 L 429.630859375 487" stroke-miterlimit="10"/></g><g transform="translate(-134,-86) scale(1,1)"><path fill="none" stroke="#000000" d="M 290 487 L 290 539" stroke-miterlimit="10"/></g><g transform="translate(-134,-86) scale(1,1)"><path fill="none" stroke="#000000" d="M 404.7490234375 487 L 404.7490234375 539" stroke-miterlimit="10"/></g><g transform="translate(-134,-86) scale(1,1)"><g><path fill="none" stroke="none"/><text fill="#000000" stroke="none" font-family="Arial" font-size="13px" font-style="normal" font-weight="bold" text-decoration="none" x="324.8291015625" y="480">Feedback</text></g></g><g transform="translate(-134,-86) scale(1,1)"><g><path fill="none" stroke="none"/><text fill="#000000" stroke="none" font-family="Arial" font-size="13px" font-style="normal" font-weight="normal" text-decoration="none" x="285" y="492"></text></g></g><g transform="translate(-134,-86) scale(1,1)"><g><path fill="none" stroke="none"/><text fill="#000000" stroke="none" font-family="Arial" font-size="13px" font-style="normal" font-weight="normal" text-decoration="none" x="295" y="502">behaviourRate</text></g></g><g transform="translate(-134,-86) scale(1,1)"><g><path fill="none" stroke="none"/><text fill="#000000" stroke="none" font-family="Arial" font-size="13px" font-style="normal" font-weight="normal" text-decoration="none" x="409.7490234375" y="502">int</text></g></g><g transform="translate(-134,-86) scale(1,1)"><g><path fill="none" stroke="none"/><text fill="#000000" stroke="none" font-family="Arial" font-size="13px" font-style="normal" font-weight="normal" text-decoration="none" x="285" y="498"></text></g></g><g transform="translate(-134,-86) scale(1,1)"><g><path fill="none" stroke="none"/><text fill="#000000" stroke="none" font-family="Arial" font-size="13px" font-style="normal" font-weight="normal" text-decoration="none" x="285" y="507"></text></g></g><g transform="translate(-134,-86) scale(1,1)"><g><path fill="none" stroke="none"/><text fill="#000000" stroke="none" font-family="Arial" font-size="13px" font-style="normal" font-weight="normal" text-decoration="none" x="295" y="517">engagementRate</text></g></g><g transform="translate(-134,-86) scale(1,1)"><g><path fill="none" stroke="none"/><text fill="#000000" stroke="none" font-family="Arial" font-size="13px" font-style="normal" font-weight="normal" text-decoration="none" x="409.7490234375" y="517">int</text></g></g><g transform="translate(-134,-86) scale(1,1)"><g><path fill="none" stroke="none"/><text fill="#000000" stroke="none" font-family="Arial" font-size="13px" font-style="normal" font-weight="normal" text-decoration="none" x="285" y="513"></text></g></g><g transform="translate(-134,-86) scale(1,1)"><g><path fill="none" stroke="none"/><text fill="#000000" stroke="none" font-family="Arial" font-size="13px" font-style="normal" font-weight="normal" text-decoration="none" x="285" y="522"></text></g></g><g transform="translate(-134,-86) scale(1,1)"><g><path fill="none" stroke="none"/><text fill="#000000" stroke="none" font-family="Arial" font-size="13px" font-style="normal" font-weight="normal" text-decoration="none" x="295" y="532">difficultyRate</text></g></g><g transform="translate(-134,-86) scale(1,1)"><g><path fill="none" stroke="none"/><text fill="#000000" stroke="none" font-family="Arial" font-size="13px" font-style="normal" font-weight="normal" text-decoration="none" x="409.7490234375" y="532">int</text></g></g><g transform="translate(-134,-86) scale(1,1)"><g><path fill="none" stroke="none"/><text fill="#000000" stroke="none" font-family="Arial" font-size="13px" font-style="normal" font-weight="normal" text-decoration="none" x="285" y="528"></text></g></g><g transform="translate(-134,-86) scale(1,1)"><rect fill="#C0C0C0" stroke="none" x="263" y="127" width="221.638671875" height="75" opacity="0.2"/></g><g transform="translate(-134,-86) scale(1,1)"><rect fill="#ffffff" stroke="none" x="256" y="120" width="221.638671875" height="75"/></g><g transform="translate(-134,-86) scale(1,1)"><path fill="none" stroke="#000000" d="M 256 120 L 477.638671875 120 L 477.638671875 195 L 256 195 L 256 120 Z Z" stroke-miterlimit="10"/></g><g transform="translate(-134,-86) scale(1,1)"><path fill="none" stroke="#000000" d="M 256 143 L 477.638671875 143" stroke-miterlimit="10"/></g><g transform="translate(-134,-86) scale(1,1)"><path fill="none" stroke="#000000" d="M 284.05908203125 143 L 284.05908203125 195" stroke-miterlimit="10"/></g><g transform="translate(-134,-86) scale(1,1)"><path fill="none" stroke="#000000" d="M 376.40087890625 143 L 376.40087890625 195" stroke-miterlimit="10"/></g><g transform="translate(-134,-86) scale(1,1)"><g><path fill="none" stroke="none"/><text fill="#000000" stroke="none" font-family="Arial" font-size="13px" font-style="normal" font-weight="bold" text-decoration="none" x="319.989501953125" y="136">ModelTemplate</text></g></g><g transform="translate(-134,-86) scale(1,1)"><g><path fill="none" stroke="none"/><text fill="#000000" stroke="none" font-family="Arial" font-size="13px" font-style="normal" font-weight="normal" text-decoration="none" x="261" y="158">PK</text></g></g><g transform="translate(-134,-86) scale(1,1)"><g><path fill="none" stroke="none"/><text fill="#000000" stroke="none" font-family="Arial" font-size="13px" font-style="normal" font-weight="normal" text-decoration="none" x="289.05908203125" y="158">id</text></g></g><g transform="translate(-134,-86) scale(1,1)"><g><path fill="none" stroke="none"/><text fill="#000000" stroke="none" font-family="Arial" font-size="13px" font-style="normal" font-weight="normal" text-decoration="none" x="381.40087890625" y="158">Long</text></g></g><g transform="translate(-134,-86) scale(1,1)"><g><path fill="none" stroke="none"/><text fill="#000000" stroke="none" font-family="Arial" font-size="13px" font-style="normal" font-weight="normal" text-decoration="none" x="261" y="154"></text></g></g><g transform="translate(-134,-86) scale(1,1)"><g><path fill="none" stroke="none"/><text fill="#000000" stroke="none" font-family="Arial" font-size="13px" font-style="normal" font-weight="normal" text-decoration="none" x="261" y="163"></text></g></g><g transform="translate(-134,-86) scale(1,1)"><g><path fill="none" stroke="none"/><text fill="#000000" stroke="none" font-family="Arial" font-size="13px" font-style="normal" font-weight="normal" text-decoration="none" x="289.05908203125" y="173">createdDate</text></g></g><g transform="translate(-134,-86) scale(1,1)"><g><path fill="none" stroke="none"/><text fill="#000000" stroke="none" font-family="Arial" font-size="13px" font-style="normal" font-weight="normal" text-decoration="none" x="381.40087890625" y="173">LocalDateTime</text></g></g><g transform="translate(-134,-86) scale(1,1)"><g><path fill="none" stroke="none"/><text fill="#000000" stroke="none" font-family="Arial" font-size="13px" font-style="normal" font-weight="normal" text-decoration="none" x="261" y="169"></text></g></g><g transform="translate(-134,-86) scale(1,1)"><g><path fill="none" stroke="none"/><text fill="#000000" stroke="none" font-family="Arial" font-size="13px" font-style="normal" font-weight="normal" text-decoration="none" x="261" y="178"></text></g></g><g transform="translate(-134,-86) scale(1,1)"><g><path fill="none" stroke="none"/><text fill="#000000" stroke="none" font-family="Arial" font-size="13px" font-style="normal" font-weight="normal" text-decoration="none" x="289.05908203125" y="188">modifiedDate</text></g></g><g transform="translate(-134,-86) scale(1,1)"><g><path fill="none" stroke="none"/><text fill="#000000" stroke="none" font-family="Arial" font-size="13px" font-style="normal" font-weight="normal" text-decoration="none" x="381.40087890625" y="188">LocalDateTime</text></g></g><g transform="translate(-134,-86) scale(1,1)"><g><path fill="none" stroke="none"/><text fill="#000000" stroke="none" font-family="Arial" font-size="13px" font-style="normal" font-weight="normal" text-decoration="none" x="261" y="184"></text></g></g><g transform="translate(-134,-86) scale(1,1)"><path fill="none" stroke="#000000" d="M 412 344 L 528 344" stroke-miterlimit="10"/></g><g transform="translate(-134,-86) scale(1,1)"><path fill="none" stroke="#000000" d="M 514 344 L 528 351" stroke-miterlimit="10"/></g><g transform="translate(-134,-86) scale(1,1)"><path fill="none" stroke="#000000" d="M 514 344 L 528 337" stroke-miterlimit="10"/></g><g transform="translate(-134,-86) scale(1,1)"><path fill="#FFFFFF" stroke="none" d="M 499 344 C 499 340.1340064 502.1340064 337 506 337 C 509.8659936 337 513 340.1340064 513 344 C 513 347.8659936 509.8659936 351 506 351 C 502.1340064 351 499 347.8659936 499 344 Z"/></g><g transform="translate(-134,-86) scale(1,1)"><path fill="none" stroke="#000000" d="M 499 344 C 499 340.1340064 502.1340064 337 506 337 C 509.8659936 337 513 340.1340064 513 344 C 513 347.8659936 509.8659936 351 506 351 C 502.1340064 351 499 347.8659936 499 344 Z" stroke-miterlimit="10"/></g><g transform="translate(-134,-86) scale(1,1)"><path fill="none" stroke="#000000" d="M 419 337 L 419 351" stroke-miterlimit="10"/></g><g transform="translate(-134,-86) scale(1,1)"><path fill="none" stroke="#000000" d="M 426 337 L 426 351" stroke-miterlimit="10"/></g><g transform="translate(-134,-86) scale(1,1)"><g><path fill="none" stroke="none"/><text fill="#000000" stroke="none" font-family="Arial" font-size="13px" font-style="normal" font-weight="normal" text-decoration="none" x="436.5" y="329"></text></g></g><g transform="translate(-134,-86) scale(1,1)"><g><path fill="none" stroke="none"/><text fill="#000000" stroke="none" font-family="Arial" font-size="13px" font-style="normal" font-weight="normal" text-decoration="none" x="501.5" y="329"></text></g></g><g transform="translate(-134,-86) scale(1,1)"><path fill="none" stroke="#000000" d="M 600 349 L 600 472" stroke-miterlimit="10"/></g><g transform="translate(-134,-86) scale(1,1)"><path fill="none" stroke="#000000" d="M 600 458 L 593 472" stroke-miterlimit="10"/></g><g transform="translate(-134,-86) scale(1,1)"><path fill="none" stroke="#000000" d="M 600 458 L 607 472" stroke-miterlimit="10"/></g><g transform="translate(-134,-86) scale(1,1)"><path fill="#FFFFFF" stroke="none" d="M 593 450 C 593 446.1340064 596.1340064 443 600 443 C 603.8659936 443 607 446.1340064 607 450 C 607 453.8659936 603.8659936 457 600 457 C 596.1340064 457 593 453.8659936 593 450 Z"/></g><g transform="translate(-134,-86) scale(1,1)"><path fill="none" stroke="#000000" d="M 593 450 C 593 446.1340064 596.1340064 443 600 443 C 603.8659936 443 607 446.1340064 607 450 C 607 453.8659936 603.8659936 457 600 457 C 596.1340064 457 593 453.8659936 593 450 Z" stroke-miterlimit="10"/></g><g transform="translate(-134,-86) scale(1,1)"><path fill="none" stroke="#000000" d="M 607 356 L 593 356" stroke-miterlimit="10"/></g><g transform="translate(-134,-86) scale(1,1)"><path fill="none" stroke="#000000" d="M 607 363 L 593 363" stroke-miterlimit="10"/></g><g transform="translate(-134,-86) scale(1,1)"><g><path fill="none" stroke="none"/><text fill="#000000" stroke="none" font-family="Arial" font-size="13px" font-style="normal" font-weight="normal" text-decoration="none" x="614.5" y="374"></text></g></g><g transform="translate(-134,-86) scale(1,1)"><g><path fill="none" stroke="none"/><text fill="#000000" stroke="none" font-family="Arial" font-size="13px" font-style="normal" font-weight="normal" text-decoration="none" x="614.5" y="446"></text></g></g><g transform="translate(-134,-86) scale(1,1)"><path fill="none" stroke="#000000" d="M 528 486 L 430 486" stroke-miterlimit="10"/></g><g transform="translate(-134,-86) scale(1,1)"><path fill="none" stroke="#000000" d="M 444 486 L 430 479" stroke-miterlimit="10"/></g><g transform="translate(-134,-86) scale(1,1)"><path fill="none" stroke="#000000" d="M 444 486 L 430 493" stroke-miterlimit="10"/></g><g transform="translate(-134,-86) scale(1,1)"><path fill="#FFFFFF" stroke="none" d="M 445 486 C 445 482.1340064 448.1340064 479 452 479 C 455.8659936 479 459 482.1340064 459 486 C 459 489.8659936 455.8659936 493 452 493 C 448.1340064 493 445 489.8659936 445 486 Z"/></g><g transform="translate(-134,-86) scale(1,1)"><path fill="none" stroke="#000000" d="M 445 486 C 445 482.1340064 448.1340064 479 452 479 C 455.8659936 479 459 482.1340064 459 486 C 459 489.8659936 455.8659936 493 452 493 C 448.1340064 493 445 489.8659936 445 486 Z" stroke-miterlimit="10"/></g><g transform="translate(-134,-86) scale(1,1)"><path fill="none" stroke="#000000" d="M 521 493 L 521 479" stroke-miterlimit="10"/></g><g transform="translate(-134,-86) scale(1,1)"><path fill="none" stroke="#000000" d="M 514 493 L 514 479" stroke-miterlimit="10"/></g><g transform="translate(-134,-86) scale(1,1)"><g><path fill="none" stroke="none"/><text fill="#000000" stroke="none" font-family="Arial" font-size="13px" font-style="normal" font-weight="normal" text-decoration="none" x="501.5" y="500"></text></g></g><g transform="translate(-134,-86) scale(1,1)"><g><path fill="none" stroke="none"/><text fill="#000000" stroke="none" font-family="Arial" font-size="13px" font-style="normal" font-weight="normal" text-decoration="none" x="454.5" y="500"></text></g></g><g transform="translate(-134,-86) scale(1,1)"><path fill="none" stroke="#000000" d="M 240 312 L 240 312" stroke-miterlimit="10"/></g><g transform="translate(-134,-86) scale(1,1)"><path fill="none" stroke="#000000" d="M 363 304 L 363 223" stroke-miterlimit="10" stroke-dasharray="3"/></g><g transform="translate(-134,-86) scale(1,1)"><path fill="none" stroke="#000000" d="M 592 304 L 592 168 L 504 168" stroke-miterlimit="10" stroke-dasharray="3"/></g><g transform="translate(-134,-86) scale(1,1)"><path fill="none" stroke="#000000" d="M 649 502 L 728 502 L 728 136 L 504 136" stroke-miterlimit="10" stroke-dasharray="3"/></g><g transform="translate(-134,-86) scale(1,1)"><path fill="none" stroke="#000000" d="M 280 496 L 176 496 L 176 160 L 224 160" stroke-miterlimit="10" stroke-dasharray="3"/></g><g transform="translate(-134,-86) scale(1,1)"><rect fill="#ffffff" stroke="none" x="336" y="256" width="59" height="24"/></g><g transform="translate(-134,-86) scale(1,1)"><path fill="none" stroke="#000000" d="M 336 256 L 395 256 L 395 280 L 336 280 L 336 256 Z Z" stroke-miterlimit="10"/></g><g transform="translate(-134,-86) scale(1,1)"><g><path fill="none" stroke="none"/><text fill="#000000" stroke="none" font-family="Arial" font-size="13px" font-style="normal" font-weight="normal" text-decoration="none" x="355.385009765625" y="271">is a</text></g></g><g transform="translate(-134,-86) scale(1,1)"><rect fill="#ffffff" stroke="none" x="144" y="328" width="59" height="24"/></g><g transform="translate(-134,-86) scale(1,1)"><path fill="none" stroke="#000000" d="M 144 328 L 203 328 L 203 352 L 144 352 L 144 328 Z Z" stroke-miterlimit="10"/></g><g transform="translate(-134,-86) scale(1,1)"><g><path fill="none" stroke="none"/><text fill="#000000" stroke="none" font-family="Arial" font-size="13px" font-style="normal" font-weight="normal" text-decoration="none" x="163.385009765625" y="343">is a</text></g></g><g transform="translate(-134,-86) scale(1,1)"><rect fill="#ffffff" stroke="none" x="560" y="224" width="59" height="24"/></g><g transform="translate(-134,-86) scale(1,1)"><path fill="none" stroke="#000000" d="M 560 224 L 619 224 L 619 248 L 560 248 L 560 224 Z Z" stroke-miterlimit="10"/></g><g transform="translate(-134,-86) scale(1,1)"><g><path fill="none" stroke="none"/><text fill="#000000" stroke="none" font-family="Arial" font-size="13px" font-style="normal" font-weight="normal" text-decoration="none" x="579.385009765625" y="239">is a</text></g></g><g transform="translate(-134,-86) scale(1,1)"><rect fill="#ffffff" stroke="none" x="704" y="264" width="59" height="24"/></g><g transform="translate(-134,-86) scale(1,1)"><path fill="none" stroke="#000000" d="M 704 264 L 763 264 L 763 288 L 704 288 L 704 264 Z Z" stroke-miterlimit="10"/></g><g transform="translate(-134,-86) scale(1,1)"><g><path fill="none" stroke="none"/><text fill="#000000" stroke="none" font-family="Arial" font-size="13px" font-style="normal" font-weight="normal" text-decoration="none" x="723.385009765625" y="279">is a</text></g></g></g></svg>